<?xml version="1.0" standalone="no"?>
<!DOCTYPE svg PUBLIC "-//W3C//DTD SVG 20010904//EN"
 "http://www.w3.org/TR/2001/REC-SVG-20010904/DTD/svg10.dtd">
<svg version="1.0" xmlns="http://www.w3.org/2000/svg"
 width="366.000000pt" height="366.000000pt" viewBox="0 0 366.000000 366.000000"
 preserveAspectRatio="xMidYMid meet">
<metadata>
Created by potrace 1.11, written by Peter Selinger 2001-2013
</metadata>
<g transform="translate(0.000000,366.000000) scale(0.100000,-0.100000)"
fill="#000000" stroke="none">
<path d="M1948 3073 c-21 -2 -38 -10 -38 -16 0 -7 29 -106 64 -222 40 -133 61
-216 56 -225 -33 -60 -32 -62 -104 182 -38 128 -73 241 -78 251 -10 20 -38 23
-38 3 0 -10 54 -201 75 -263 2 -6 -35 7 -83 29 -118 55 -372 158 -388 158 -7
0 -11 -6 -8 -14 3 -9 -1 -13 -13 -13 -17 2 -18 -11 -23 -168 l-5 -170 -110
124 -110 123 -7 -73 c-4 -41 -11 -130 -15 -198 l-8 -123 -83 116 c-69 96 -86
115 -100 107 -9 -5 -52 -42 -95 -83 l-78 -73 73 -96 c40 -53 123 -166 183
-252 61 -86 113 -156 116 -157 4 0 10 83 14 185 4 102 10 197 14 212 7 25 12
20 124 -98 l117 -124 1 275 c1 151 4 316 8 365 l6 90 64 -215 c103 -347 111
-370 126 -370 23 0 18 34 -24 172 l-38 126 76 -28 c72 -26 300 -125 308 -134
5 -4 -33 -57 -400 -565 -148 -204 -272 -371 -276 -371 -4 0 -21 12 -38 28
-133 117 -167 147 -220 191 -34 28 -67 51 -75 51 -15 0 -58 -32 -58 -42 0 -5
-144 -245 -260 -433 -23 -38 -48 -79 -54 -90 -40 -73 -210 -345 -215 -345 -4
0 -47 135 -96 300 -49 165 -93 300 -97 300 -4 0 -21 -46 -38 -102 -17 -57 -36
-117 -41 -135 -9 -27 3 -74 82 -340 50 -169 93 -310 96 -313 2 -2 7 0 11 5 4
6 16 12 27 13 10 2 28 14 38 25 75 87 124 143 137 157 8 8 28 31 44 50 31 38
132 154 156 180 8 9 40 45 70 81 60 70 76 89 117 135 37 41 130 148 154 177
12 14 21 18 26 11 104 -143 139 -190 145 -192 4 -2 8 -9 8 -15 0 -23 51 -65
72 -59 17 4 124 123 290 323 86 103 224 268 263 314 24 28 52 61 64 75 l20 25
-6 -181 c-4 -160 -3 -182 12 -197 9 -9 24 -17 33 -17 10 0 81 55 158 123 209
183 255 222 263 225 4 1 40 -72 81 -163 66 -151 76 -169 112 -191 22 -14 47
-28 55 -31 9 -4 65 -35 125 -70 60 -35 113 -63 117 -63 8 0 173 -164 524 -523
187 -191 205 -207 228 -199 29 11 51 50 39 71 -4 9 -195 256 -423 550 -229
293 -426 547 -439 563 -33 44 -248 320 -321 413 -35 44 -76 98 -92 120 -17 22
-40 51 -52 65 -28 31 -29 40 -2 40 15 0 19 5 15 18 -3 9 -44 148 -92 307 -47
160 -91 293 -98 297 -11 8 -99 8 -168 1z"/>
<path d="M2200 3063 c0 -14 178 -604 184 -610 7 -7 163 -32 253 -40 59 -5 77
-3 98 11 106 70 48 317 -115 489 -75 80 -128 110 -231 130 -103 21 -189 30
-189 20z m327 -114 c83 -52 179 -193 209 -308 30 -121 -18 -203 -111 -185
l-32 6 -76 256 c-43 141 -77 260 -77 264 0 10 46 -8 87 -33z"/>
<path d="M2742 2929 c3 -8 45 -148 94 -313 59 -197 94 -300 104 -304 8 -3 57
-25 109 -49 52 -24 96 -42 98 -40 1 2 -38 142 -89 312 l-92 308 -90 42 c-113
53 -141 62 -134 44z"/>
<path d="M3042 2787 c1 -8 43 -149 93 -314 l89 -300 41 -23 c22 -13 71 -43
108 -68 37 -24 69 -43 71 -41 2 2 -23 92 -55 199 -32 107 -57 195 -56 196 1 2
34 -22 72 -52 100 -78 115 -87 122 -81 13 13 -32 60 -122 128 -52 39 -95 72
-95 73 0 0 -7 23 -15 49 -17 55 -19 56 81 -20 76 -57 84 -61 84 -38 0 20 -111
111 -245 199 -136 91 -178 113 -173 93z"/>
<path d="M607 2235 c-4 -88 -7 -296 -7 -462 0 -263 2 -303 15 -303 12 0 15 14
15 69 0 74 13 100 108 221 20 25 37 47 39 49 1 2 12 -4 22 -13 11 -10 24 -16
29 -15 6 2 49 46 97 97 l87 92 -75 83 c-42 45 -132 140 -200 212 l-124 129 -6
-159z m84 -464 l-61 -83 0 144 0 143 61 -61 61 -61 -61 -82z"/>
<path d="M360 1947 c-37 -18 -80 -88 -138 -225 l-52 -121 92 -310 c51 -171 95
-311 98 -311 4 0 70 146 137 303 42 101 55 187 51 342 -4 116 -9 150 -28 199
-39 102 -104 152 -160 123z m85 -81 c52 -55 70 -129 70 -286 0 -112 -4 -147
-23 -207 -12 -40 -26 -74 -30 -77 -5 -3 -43 110 -85 250 -72 241 -76 258 -62
284 17 33 61 70 83 70 8 0 29 -15 47 -34z"/>
</g>
</svg>
